P3
3 3
255
25 25 25 
45 45 45 
69 69 69 
69 69 69 
66 78 98 
78 98 98 
89 68 68 
98 45 12 
23 46 16 
